<svg id="death2_Image" data-name="death2 Image" xmlns="http://www.w3.org/2000/svg" viewBox="0 0 562.56 542.4"><title>death2</title><path d="M.28.36H562.84v542.4H.28Q.28,271.56.28.36Z" transform="translate(-0.28 -0.36)" style="fill:#fdfefe"/><path d="M452.38,365.2c.17,1.17-.48,1.63-.87,2.18q-8.58,12-17.2,24c-.42.58-.84,1.17-1.25,1.76a4.11,4.11,0,0,0-.16,4.74c2.84,4.73,5.75,9.42,9.57,13.46,4.19,4.42,4.18,6.23.46,11.17-3.46,4.6-6.75,9.33-10.07,14-1.52,2.15-1.42,3.11.46,5.59,4.44,5.87,8.64,11.91,12.84,18,2,2.94,4.07,5.89,6.1,8.82-.5.7-1.11.43-1.61.43q-21.6,0-43.2-.09c-2.71,0-3.44.63-3.5,3.33a35.13,35.13,0,0,0,.25,3.58c.06.8.21,1.59.22,2.38,0,2.91-1.39,4.47-4.27,4.72a15.29,15.29,0,0,1-2.64,0c-8.23-.72-16.47-.33-24.7-.39-19.84-.15-39.68-.07-59.52-.2a7.65,7.65,0,0,0-7.53,4.38c-4.92,9-10,17.83-15,26.76-2.07,3.69-4.38,7.25-6.16,11.11a1.94,1.94,0,0,1-1.78,1.38c-1,0-1.53-.73-1.73-1.69a10.15,10.15,0,0,0-1.29-2.82c-6.5-11.75-13.06-23.47-19.47-35.26a7.31,7.31,0,0,0-7.13-4.2q-40.2,0-80.4-.13c-1.6,0-3.2,0-4.8,0a13.74,13.74,0,0,1-2.38-.23c-2.57-.5-3.5-1.58-3.25-4.13.18-1.84.18-3.67.23-5.51.08-3.05-.81-4-3.94-4.06-1.6,0-3.2,0-4.8,0H115.68c-.45,0-.95.19-1.38-.23-.06-.71.5-1.13.85-1.61,6.33-8.74,12.31-17.74,19-26.24,1.46-1.86,1.45-2.85,0-5-3.57-5-7.17-10-10.76-15l-1.26-1.75a3.78,3.78,0,0,1,.07-4.86q5.55-7.53,11.06-15.09c.33-.45.68-.89,1-1.34a3.82,3.82,0,0,0,.16-4.88q-.61-.89-1.24-1.77L115.39,365.8c-.27-.38-.51-.79-.78-1.2.54-.66,1.22-.4,1.79-.4q20.4,0,40.8.12c10.32.06,20.63.19,30.95.28a10.07,10.07,0,0,0,1.2,0c1.94-.21,2.27-.73,1.43-2.46-.77-1.58-1.65-3.1-2.51-4.64L61.87,131.19a7.81,7.81,0,0,1-1.46-3.72,8.14,8.14,0,0,1,3.8,1.91c2.08,1.63,4,3.39,6.11,5q29.93,23.66,59.88,47.29c.69.54,1.37,1.1,2.05,1.66a1.62,1.62,0,0,0,1.76.42,1.53,1.53,0,0,0,.9-1.79,32.44,32.44,0,0,1-.14-5.27q.13-37.31.26-74.63a22,22,0,0,1,.13-2.87,2.89,2.89,0,0,1,2.77-2.81,15.86,15.86,0,0,1,2.39-.11l70.56.16c3.84,0,7.68,0,11.52.06l43.2.11q38.28.1,76.55.19,38.64.08,77.28.12c3.36,0,6.71.22,10.07,0,2.28-.15,3.29.91,3.33,3.38.06,3.76,0,7.52,0,11.28q0,30.72,0,61.44c0,3.2,0,6.4-.08,9.59,0,.89-.15,1.82.77,2.35s1.8-.08,2.57-.68l49.42-38.84q9.06-7.11,18.14-14.2a24.66,24.66,0,0,0,2-1.74c.57-.56,1.17-.92,1.89-.36s.58,1.35.14,2.12c-2.6,4.49-5.2,9-7.77,13.51Q438.9,252.18,378,359.61c-.59,1-1.13,2.11-1.62,3.2s0,1.68,1,2a12.31,12.31,0,0,0,3.34.29l68.15.12Z" transform="translate(-0.28 -0.36)" style="fill:#2a3d3f"/><path d="M272.25,59c.38,3.22.38,3.17-2.68,3.24-1.81,0-4.1-.81-5.29.41S264,66,264,67.76c0,3.76,0,7.52,0,11.28,0,2.79.63,3.4,3.35,3.47,1,0,2.08,0,3.12,0,2.59,0,2.39.11,2.39-2.28q0-5.76,0-11.52,0-1.14,0-2.29l.48-.11,12.34,22c-.46.73-1.07.47-1.57.48q-9.84,0-19.68,0A11.4,11.4,0,0,1,262,88.6a4.79,4.79,0,0,1-4-3.95,17.73,17.73,0,0,1-.28-3.58q0-16.08,0-32.16c0-.56,0-1.12,0-1.68.05-.91-.34-1.27-1.26-1.3-2.08-.08-4.15-.23-6.23-.38-.9-.07-1.38.23-1.29,1.2,0,.16,0,.32,0,.48q0,16.8,0,33.6c0,.57-.36,1.43.55,1.6a4.08,4.08,0,0,0,2.8-.14c.58-.34.11-1.21.61-2.16l5,8.48h-23.6c2.32-1.67,4.21-3.22,6.27-4.46,1.73-1,2.2-2.34,2.18-4.3-.1-10.56,0-21.12,0-31.68,0-.56,0-1.12,0-1.68.05-.92-.37-1.3-1.27-1.31q-4.32-.06-8.64-.16c-.82,0-1.17.33-1.14,1.14,0,.64,0,1.28,0,1.92q0,20.76,0,41.52v2.66a31.57,31.57,0,0,1-6-4.58,3.61,3.61,0,0,1-.22-2.1q0-16.92,0-33.84c0-1.68,0-3.36,0-5s-.06-1.62-1.62-1.55c-8.49.38-16.89,1.34-25,4-.38.12-.77.19-1.16.28s-.66-.08-.56-.55c7-5.3,15-7.73,23.64-8.09,1.2,0,2.4-.11,3.59-.13.8,0,1.14-.39,1.13-1.18,0-1.43,0-2.86,0-4.32a13.21,13.21,0,0,1,6.28,4.67,1,1,0,0,0,1,.45c.8,0,1.59,0,2.38,0,.3-1-.7-1.45-.76-2.38h22.77c-1,1.07-2.27,1.3-3.3,2.12a34.51,34.51,0,0,0,3.55,4.36,3.54,3.54,0,0,0,.36-2.07c.26-2.56,1.45-3.93,4-4.38a15,15,0,0,1,2.63-.16h39.33a14.89,14.89,0,0,1,2.39.14c2.66.44,3.9,1.83,4.06,4.51,0,.72,0,1.44,0,2.16,0,4.24-.09,8.48,0,12.71,0,2.12-.13,4-2.73,5,1,.68,1.95,1,2.35,1.91a6.68,6.68,0,0,1,.34,2.83q0,7.08,0,14.15a8.62,8.62,0,0,0,0,1.2c.09.64-.38,1.66.68,1.74s.26-1.2,1-1.7l3.92,5.86c-.4.83-1,.53-1.53.54-2.72,0-5.44,0-8.15,0-2.11,0-2.13,0-2.13-2.05q0-9.71,0-19.43c0-.72,0-1.44,0-2.16-.17-1.88-.84-2.56-2.66-2.75-3.53-.38-3.61-.31-3.61,3.22q0,12.11,0,24.22c0,.8,0,1.59,0,3-2.18-1.85-4-3.38-5.84-5-.68-.6-.36-1.52-.37-2.29q0-14.87,0-29.74c0-3.92-.06-7.84,0-11.75,0-1.27-.41-1.74-1.64-1.61a5.67,5.67,0,0,1-1.44,0c-1.23-.18-1.75.38-1.52,1.92-1.39-1-1.73-2.45-2.76-3.32-1.2.91-1.54,2.36-2.6,3.2-.42-.33,0-1-.62-1.33-2.12,4.46-4.23,8.92-6.36,13.35-.37.76-.49,1.72-1.42,2.12-.95-.88-.74-2.05-.76-3.14q-.07-4.66,0-9.33c0-1.81-.7-2.67-2.54-2.55-.71,0-1.43,0-2.15,0-2,0-2.89,1-2.94,3-.08,3.27,0,6.54,0,9.81,0,1.56.78,2,2.22,2.12C268.59,58.34,270.59,57.58,272.25,59Z" transform="translate(-0.28 -0.36)" style="fill:#2a3d3f"/><path d="M351.7,56.74c2.52,1,2.95,2.8,2.88,5.07-.13,4.47,0,8.95,0,13.42,0,.64,0,1.28,0,1.92-.22,3.29-2,5.15-5.3,5.32-2.47.13-5,.06-7.43.06h-8.63a3,3,0,0,1-.47-.07,31.52,31.52,0,0,1,3.87-5.82c.56-.5,1.2-.35,1.82-.35,2.4,0,4.8,0,7.19,0s2.72-.46,2.74-2.63q.06-6.35,0-12.71c0-2-.52-2.49-2.6-2.53s-4.32,0-6.47,0c-2.79,0-3.94-.57-6.23-3.19h4.89c2.72,0,5.44,0,8.15,0,1.69,0,2.21-.52,2.25-2.13.07-2.8.06-5.59,0-8.39,0-1.57-.5-2.1-2-2.15-2.87-.1-5.75,0-8.63-.08-1.28,0-.84,1.05-1.29,1.79-1.65-2-2.82-4.08-4.21-6.09.68-.6,1.34-.37,1.93-.37,4.55,0,9.11,0,13.67,0a19.93,19.93,0,0,1,2.39.09c3,.37,4.37,1.88,4.4,4.92s-.1,6.24,0,9.35C354.66,54.24,354.11,55.87,351.7,56.74Z" transform="translate(-0.28 -0.36)" style="fill:#2a3d3f"/><path d="M272.25,59c-2.32,0-4.63,0-6.94.06-1,0-1.39-.39-1.38-1.41,0-4.15,0-8.31.06-12.46,0-2,.7-2.62,2.83-2.74,1.51-.09,3,0,4.55-.06,1.17-.06,1.7.24,1.68,1.57-.09,4.79-.06,9.58-.07,14.37Z" transform="translate(-0.28 -0.36)" style="fill:#feffff"/><path d="M196.66,49.87a1.13,1.13,0,0,1-.16.15c-.37.22-.84.55-1.08,0-.14-.32.36-.57.72-.7C196.33,49.48,196.63,49.55,196.66,49.87Z" transform="translate(-0.28 -0.36)" style="fill:#a3aaaa"/><path d="M196.66,49.87c-.25-.11-.48-.24-.53-.54l.94-.5.56.55A1.33,1.33,0,0,1,196.66,49.87Z" transform="translate(-0.28 -0.36)" style="fill:#5f6c6e"/><path d="M423.18,107.41c0,20.39.06,40.77-.12,61.16-.05,6.3.29,12.59,0,18.89.11,4,.08,8.06,0,12.08.37,3.13-1.06,5.28-3.49,7.12-6.76,5.11-13.43,10.34-20.14,15.53a23.59,23.59,0,0,0-7,9Q387.13,242.6,381.84,254c-.37.79-.63,1.65-1.6,2s-1.29,0-1.12-.85a18.23,18.23,0,0,1,.56-1.83c1.86-5.61,3.46-11.3,5.49-16.86a21.45,21.45,0,0,0,1.13-4.65c.71-5.58,3.59-10,7.6-13.79,2-1.91,4.23-3.66,6.35-5.49a4.32,4.32,0,0,0,1.56-1.64H357.86c-.28.69.33,1,.65,1.39a15.46,15.46,0,0,0,1.26,1.45c8.43,8.46,12.29,19.09,14.44,30.51,1.63,8.66,1.21,17.37.28,26.05-.64,6-1.3,11.92-1.63,17.91-.45,8.23-1.64,16.38-2.73,24.54-.3,2.22-.66,4.43-.86,6.66a5.35,5.35,0,0,1-3.46,4.74c-4.65,2.12-9.26,4.34-13.88,6.53-2.24,1.06-4.45,2.17-6.71,3.19a18.27,18.27,0,0,0-7.95,7.07c-1.86,2.9-3.21,6.07-4.87,9.08-.67,1.21-.18,2.15.5,3.09a59.15,59.15,0,0,1,4.45,7.94,9.89,9.89,0,0,1-.13,9.84c-2.33,4.28-4.9,8.4-7.66,12.66a7.11,7.11,0,0,1-2.45-3.51q-1.36-3.33-2.69-6.66a9.34,9.34,0,0,0-2.06-3.54l-6.3,14.49-6.43-14.89c-2.67,4.45-3.33,9.58-6.55,13.85-3.21-4.08-3.6-9.32-6.68-13.64-2.23,4.63-3.86,9.25-6,14-3.36-4.24-4.18-9.47-6.94-14.21L277,384.27l-6.39-15.16L264,384.27l-6.44-15.07L251,384.09c-2.46-5-4.15-9.91-6.54-15l-6.23,14.76c-.82-.24-1-.84-1.25-1.3q-4.34-7.18-8.64-14.39c-1.36-2.29-1.3-3.37.36-5.45a31.74,31.74,0,0,0,3.42-4.91,13.29,13.29,0,0,0,.27-12.88c-2.45-4.78-5.75-8.76-10.79-11.15-6.43-3-12.72-6.37-19.14-9.42a8,8,0,0,1-4.92-7c-1-9.54-2.19-19.06-3.18-28.6-.64-6.2-1.09-12.42-1.53-18.64-.46-6.54-.59-13.1-.72-19.66A46.51,46.51,0,0,1,198.06,227a78.34,78.34,0,0,1,10.51-14.55c.54-.61,1.68-1.14,1.22-2.1-.37-.78-1.44-.38-2.2-.38q-19,0-37.92,0c-.89,0-2.14-.46-2.53.74s.83,1.61,1.59,2.09c6.8,4.27,10.65,10.64,13,18.1,1.54,4.89,2.47,9.92,3.78,14.86.43,1.62.92,3.22,1.36,4.84.18.67.58,1.53-.31,1.87s-1.24-.38-1.55-1.1c-3.4-8-7.24-15.84-10.86-23.76a11.74,11.74,0,0,0-3.49-4.47c-7.6-6-15.1-12.11-22.94-17.78a7,7,0,0,1-3.09-6.31q.19-44,.23-88.08c0-.24,0-.48,0-.72.11-3.17.87-3.94,4.05-3.94,8.88,0,17.76,0,26.64.06q21.72,0,43.44.06c3.68,0,7.35.1,11-.18,2,.2,3.92-1.08,5.93-.27,3.91.11,7.82.28,11.73.3q27,.13,54,.19,42.1.08,84.21.1c10.46.26,20.93,0,31.39.11,1.44,0,2.88,0,4.31,0C422.25,106.67,422.87,106.68,423.18,107.41Z" transform="translate(-0.28 -0.36)" style="fill:#fff"/><path d="M244,471.83c-25.93,0-45.68,0-65.44,0-3.78,0-6,.22-5.94-6.08,0-4.64-.1-9.28.06-13.92.61-17.91.1-35.82.28-53.73,0-1,0-2.09.09-3.12.21-2,1.12-2.95,3.07-3,4.39,0,8.78,0,13.18.27,4.22.27,8.47.18,12.71.15,18.32-.09,36.64-.29,54.94.2,18.47.5,36.94.11,55.41.2,25.1.12,50.2.06,75.29,0,4.95,0,6.34,1.15,6.25,6.32-.18,11.35,0,22.72-.22,34.07-.12,5.1-.36,10.21-.65,15.31a140.42,140.42,0,0,0,.1,18.21c.26,3.51-.83,5.38-4.66,5.39-6.16,0-12.32,0-18.48,0-22.08,0-44.16.33-66.22-.1S259.86,472.12,244,471.83Z" transform="translate(-0.28 -0.36)" style="fill:#be434e"/><path d="M470.58,172.39a15.67,15.67,0,0,1-2.28,6.74C462,189.58,456.18,200.36,450.1,211c-7.47,13-14.88,26.1-22.37,39.13-8.49,14.76-17,29.47-25.55,44.21Q388.69,317.67,375.25,341,363,362.22,350.66,383.33a34.69,34.69,0,0,1-2.68,4,5.12,5.12,0,0,1-5.62,1.72c-1.88-.46-2.49-1.6-1.79-3.38a37.51,37.51,0,0,1,1.91-3.86c5.88-11,11.76-22,17.14-33.25,5-10.53,10.11-21,15.62-31.34s11-20.75,16.19-31.31c9.35-19.19,18.66-38.39,28.3-57.44A73.18,73.18,0,0,1,432.24,211c7.83-8.22,15.75-16.35,23.47-24.68,3.64-3.93,7.56-7.59,11-11.71A5.66,5.66,0,0,1,470.58,172.39Z" transform="translate(-0.28 -0.36)" style="fill:#be434e"/><path d="M97.21,171.22a9.49,9.49,0,0,1,5.59,3c2,2,3.85,4.06,5.66,6.19,7.49,8.85,14.94,17.73,23.47,25.62a80.13,80.13,0,0,1,15.89,21.21c7.92,14.72,14.91,29.9,22.3,44.89,6.11,12.41,12.32,24.77,18.49,37.16,4.63,9.3,9.34,18.58,13.89,27.92,4.34,8.91,8.5,17.91,12.79,26.85q5.13,10.7,11,21c1.06,1.86.68,3-1.31,3.73a5.28,5.28,0,0,1-6.65-2.34c-1.09-1.67-2-3.44-3-5.17q-16-28-32.05-56c-7.4-13-14.69-26-22-39.06q-13.48-23.92-26.94-47.85-11.23-20-22.44-39.93c-4-7.11-8-14.19-12-21.3A23.09,23.09,0,0,1,97.21,171.22Z" transform="translate(-0.28 -0.36)" style="fill:#be434e"/><path d="M161.49,374.74q11.15,0,22.3,0c1,0,2.22-.36,2.66,1s-.83,1.64-1.61,2.27c-1.55,1.25-3,2.64-4.51,3.93a51.57,51.57,0,0,1-6.62,4.73,6.07,6.07,0,0,0-3,5.15,122.72,122.72,0,0,0-.41,15.56c.63,9.26.52,18.53.29,27.79-.15,6.23-.42,12.45-.48,18.68a11.37,11.37,0,0,1-.29,2.13c-.42,2-1.17,2.72-3.24,2.75-3.12,0-6.23,0-9.35,0l-19.18,0c-1.34,0-3,.28-3.59-1.23-.53-1.3.6-2.39,1.35-3.39,2.63-3.51,5.32-7,8-10.48.44-.57.86-1.16,1.26-1.75,2.64-4,2.46-6.84-.89-10.31a94.5,94.5,0,0,1-7.59-8.63,27.89,27.89,0,0,1-1.92-2.74c-1.88-3.23-1.54-6.26.76-8.87,3.66-4.14,6.87-8.61,10.34-12.89,2.36-2.91,2.41-4.8.23-7.75-3-4-6-8.07-9-12.11a4.87,4.87,0,0,1-.81-1.45,1.71,1.71,0,0,1,1.6-2.36c.87-.09,1.76,0,2.63,0h21.1Z" transform="translate(-0.28 -0.36)" style="fill:#be434e"/><path d="M396.87,426.74c0-8.63,0-17.27,0-25.9,0-1.83.25-3.66.27-5.49.08-4.75-1.86-8.3-6.28-10.38-3.41-1.6-6.72-3.38-9.24-6.29-.21-.24-.48-.43-.67-.68-1-1.29-.6-2.52,1-2.78a13.53,13.53,0,0,1,2.15-.08l43.41,0c.48,0,1,0,1.44,0,2.35.24,3.4,2.37,1.76,4.09-3.76,4-6.17,8.94-10.1,12.76a4,4,0,0,0,0,6.19c3.55,3.24,6,7.25,8.45,11.26.75,1.22,1.58,2.4,2.44,3.56,2.23,3,2.35,5.21.09,8.3-2.49,3.42-5.14,6.72-7.72,10.08-1.17,1.52-2.35,3-3.47,4.58-1.48,2-1.52,3.28,0,5.21,3.24,4.16,6.17,8.55,9.26,12.82a14.53,14.53,0,0,1,1.4,2.23c.7,1.47.23,2.3-1.35,2.5a11.37,11.37,0,0,1-1.44,0H401.85a13.18,13.18,0,0,1-1.68,0,3.35,3.35,0,0,1-3.08-2.58,11,11,0,0,1-.31-3.08q0-13.19,0-26.38Z" transform="translate(-0.28 -0.36)" style="fill:#be434e"/><path d="M236,106a4.18,4.18,0,0,1-2.93.51c-1-.11-2-.16-3-.24a.9.9,0,0,1,.19-.15c.61-.24,1.63.28,1.8-.67.2-1.12-.86-1.4-1.65-1.71a6.09,6.09,0,0,1-2.13-1c-.41-.39-.49-.81.13-1.11a23.23,23.23,0,0,1,2.8-1.33c2.26-.74,5.36,2.06,5.09,4.54A8.93,8.93,0,0,1,236,106Z" transform="translate(-0.28 -0.36)" style="fill:#bc434e"/><path d="M423.18,107.41c-.85-.8-1.91-.66-2.94-.66q-16,0-32,0a5.11,5.11,0,0,1-2.35-.18,8.52,8.52,0,0,1,2.62-.14c10.15,0,20.31,0,30.46,0a9,9,0,0,0,3.54-.33C423.43,105.7,423.57,106,423.18,107.41Z" transform="translate(-0.28 -0.36)" style="fill:#aa4e56"/><path d="M423.07,199.55a36,36,0,0,1,0-12.08A27.6,27.6,0,0,1,423.07,199.55Z" transform="translate(-0.28 -0.36)" style="fill:#b6434d"/><path d="M297.58,50.67c0-2.31,0-4.63,0-6.94,0-.89.3-1.3,1.24-1.32,5.4-.09,5,.12,5,4.47q.06,4.67,0,9.34c0,2.62-.5,3.1-3.09,3.09-3.68,0-3.17.47-3.21-3.13,0-1.84,0-3.67,0-5.51Z" transform="translate(-0.28 -0.36)" style="fill:#fdfefe"/><path d="M214,266a10.57,10.57,0,0,1,2-5.8c1.72-2.41,4-4.37,5.59-6.88a1,1,0,0,1,1.65-.21c.63.5,1.24,1,1.82,1.56l28.46,26.44q7.65,7.1,15.31,14.17c.47.43.94.87,1.38,1.33,1.5,1.57,1.69,2.42.61,4.27-3.19,5.45-6.21,11-9.22,16.54-1.21,2.23-2,2.51-4.52,1.78-12-3.47-23.9-7-35.87-10.42-2.67-.76-4.08-2.18-4.23-5-.28-5.27-.73-10.52-1.09-15.78q-.71-10.52-1.82-21C214,266.62,214,266.31,214,266Z" transform="translate(-0.28 -0.36)" style="fill:#2a3d3f"/><path d="M353.83,264.56c-.66,7.83-1.35,15.95-2,24.07q-.62,7.53-1.15,15.06c-.25,3.41-.93,4.33-4.17,5.23-11.7,3.24-23.38,6.51-35,10.11-3.38,1-4.49.57-6.17-2.65-2.54-4.89-5.23-9.7-8-14.48-1.66-2.88-1.52-3.82.88-6l35.85-32.93c2.88-2.65,5.75-5.32,8.63-8a17.11,17.11,0,0,1,1.65-1.39,1.55,1.55,0,0,1,2.47.45c1.45,2.54,3.65,4.44,5.54,6.59A4.66,4.66,0,0,1,353.83,264.56Z" transform="translate(-0.28 -0.36)" style="fill:#2a3d3f"/><path d="M328.5,170.8l3.79,6.29c-6.86.19-13.3.06-19.75.1l-.15-.49c1.78-1.28,3.51-2.63,5.35-3.82a2.85,2.85,0,0,0,1.42-2.75c0-9.43,0-18.86,0-28.29,0-2,0-2-1.95-2.07-2.08-.09-4.15-.08-6.23-.15-.82,0-1.17.32-1.14,1.12,0,.64,0,1.28,0,1.92q0,18.7,0,37.41c-1.05-.32-4.89-3.19-5.21-3.91a5,5,0,0,1-.17-2.13q0-15.71,0-31.41c0-.56,0-1.12,0-1.68.05-1-.41-1.3-1.31-1.2-.24,0-.48,0-.72,0-1.84.13-1.87.13-1.88,1.93,0,3.44,0,6.87,0,10.31q0,8.87,0,17.74c0,.56,0,1.12,0,1.68-.13,4.28-1.55,5.68-5.88,5.72-2.64,0-5.28.07-7.91,0-3.29-.12-4.8-1.58-5-4.88-.14-2.23,0-4.47,0-6.71,0-6.87,0-13.75,0-20.62,0-1.19-.19-1.89-1.57-1.41a.4.4,0,0,1,0-.64c.42-.57,1.42-.67,1.49-1.46a30.74,30.74,0,0,0,0-3.58.42.42,0,0,0-.52-.35c-.66.13-.3.83-.81,1.32l-3.33-5c.38-.84,1-.5,1.51-.51,2.4,0,4.79,0,7.19-.06,1.18,0,1.56.42,1.5,1.54s0,2.37,0,3.92a76.22,76.22,0,0,1,9.39-2.63c1.3-.33,2.37-1.54,3.47-2.31a.65.65,0,0,1,.52.78c-.07,1.08.45,1.43,1.46,1.27a6.15,6.15,0,0,1,1.2-.07c.9,0,1.31-.35,1.27-1.28,0-1.11,0-2.22,0-3.94,2,1.82,4.25,2.45,5.5,4.57.56,1,1.72.29,2.57.37.31-.51,0-.82-.18-1.16a.92.92,0,0,1-.14-1h19.28c-.61,1.12-2,1.06-2.76,2.1l3.37,3.92c.79-1.26-.12-2.7.84-3.7a3.74,3.74,0,0,1,.77,2.92q0,16.14,0,32.28c0,1,.06,2.1-.84,2.88-.62-.94-.38-2-.39-3q0-13.76,0-27.53c0-.56,0-1.12,0-1.68s-.23-1-.95-1.08c-1.91-.11-3.82-.24-5.73-.39-.82-.07-1.19.26-1.17,1.08,0,.56,0,1.12,0,1.68q0,13,0,26.09c0,2.95,0,2.95,3,2.74C328.06,171.58,327.67,170.55,328.5,170.8Z" transform="translate(-0.28 -0.36)" style="fill:#2a3d3f"/><path d="M317.83,214.76a11.74,11.74,0,0,0-4.86,3c-1.4,1.48-1.43,3.33-1.27,5.18a91.18,91.18,0,0,1,.51,10.53c-.13,4.15-.37,8.3-.32,12.46,0,2.26-.86,3-3.34,3s-3.37-.76-3.5-2.92c0-.8,0-1.6,0-2.4q0-14.27,0-28.54c0-.72,0-1.44-.08-2.15-.17-1.87-.08-2.07,1.63-2.55a14.44,14.44,0,0,1,2.12-.36,2.84,2.84,0,0,1,3,1.4c1.19,1.83,1.67,1.85,3.5.75a3,3,0,0,0,.4-.26c2.43-2.05,4.85-2.1,7.33-.06a3.61,3.61,0,0,0,4.63.28,12.4,12.4,0,0,1,3.06-1.36c3-.9,6.61.52,6.58,4.68-.07,10.07,0,20.14,0,30.21,0,1.15,0,2.34-1.29,2.85a5,5,0,0,1-4.62-.15c-.93-.57-.92-1.63-.92-2.59,0-2.48,0-5,0-7.43,0-5.68,0-11.35,0-17,0-1.36.15-2.71.15-4.07,0-1.53-.6-2-2.09-1.75a5.05,5.05,0,0,0-4.16,4.37,16.41,16.41,0,0,0-.05,1.92q0,11,.05,22.06c0,.64,0,1.28,0,1.92a3.3,3.3,0,0,1-5.27,2.73,2.08,2.08,0,0,1-1.06-1.77c0-1.12-.06-2.23-.06-3.35q0-13.67,0-27.34C317.92,215.72,317.88,215.4,317.83,214.76Z" transform="translate(-0.28 -0.36)" style="fill:#2a3d3f"/><path d="M362.84,180.68c-1.87-1.58-3.22-2.81-4.66-3.92-1-.73-.74-1.69-.74-2.62q0-15.23,0-30.45c0-1.6,0-3.2,0-4.8,0-.69.17-1.46-1-1.54s-1.09.66-1.24,1.78a45.11,45.11,0,0,1-3.78-5.8c3.74,0,7.14,0,10.54,0,1.19,0,1.33,1,1.71,1.72q5.9,11.24,11.76,22.5a43.38,43.38,0,0,0,3.54,6V133.65a24.62,24.62,0,0,1,5.19,4.12c.37.33.27.9.27,1.37q0,21.58-.07,43.16a1,1,0,0,1-.07.25c-.77.23-.88-.49-1.18-.87a66.65,66.65,0,0,1-6.91-10.9c-3.9-7.69-7.94-15.31-11.95-22.95-.35-.67-.5-1.51-1.46-2Z" transform="translate(-0.28 -0.36)" style="fill:#2a3d3f"/><path d="M267.75,343.77,279,304.63c4.31,2.9,5.26,2.91,9.16.24.75.18.56.88.7,1.36q4.88,17.28,9.72,34.56c0,.15.11.3.14.46.12.54.39,1.16-.14,1.56s-1-.19-1.41-.51c-3.33-2.61-6.68-5.21-9.83-8l-.53-.49c-2.49-2.19-3.83-2.27-6.25-.11-3.46,3.09-7.1,5.95-10.72,8.84C269.27,343,268.8,343.68,267.75,343.77Z" transform="translate(-0.28 -0.36)" style="fill:#2a3d3f"/><path d="M401.55,144.44a13.49,13.49,0,0,0,2-2.3c1.4-2.63.32-4.65-2.63-4.75-2-.07-4-.08-6,0-2.17.1-2.85.8-2.89,3-.06,3.44,0,6.87,0,10.31,0,1.89.35,2.29,2.22,2.34,3,.08,5.91,0,8.87,0a14.44,14.44,0,0,1,3.81.31c2,.55,2.52,1.08,2.58,3.14,0,1.52-.34,3.15.1,4.53.64,2-.31,3.82-.14,5.75a33.45,33.45,0,0,1-.08,6c-.25,2.85-1.62,4.26-4.44,4.34q-6.83.19-13.66,0c-3-.08-4.51-1.74-4.57-4.76-.09-4.23,0-8.47,0-13.13,2.84,1.73,5.27,3.55,7.89,5.35a8.69,8.69,0,0,0-2.3,3.2c-.74,2.48.21,3.94,2.74,4,1.92.05,3.84,0,5.75,0,2.82,0,3.28-.51,3.3-3.44,0-3.28,0-6.55,0-9.83,0-2.47-.2-2.67-2.79-2.7-3,0-5.91,0-8.87,0a12.75,12.75,0,0,1-3.33-.37c-1.83-.49-2.39-1.12-2.4-3,0-5,0-9.91,0-14.87,0-2.38.94-3.75,3.3-4a90.45,90.45,0,0,1,16.26,0,3.13,3.13,0,0,1,3.13,3.09c.1,4.2,0,8.41,0,13Z" transform="translate(-0.28 -0.36)" style="fill:#2a3d3f"/><path d="M165.33,180.37c-1.44-1.23-2.86-2.48-4.33-3.68-.75-.61-.65-1.4-.65-2.19q0-4.8,0-9.59c0-8.47,0-16.95,0-25.42,0-.77.47-1.84-.88-2.11-1.87-.37-2.73-.06-3.51,1.44l-3.29-4.95c.28-.78.85-.52,1.27-.52q8.51,0,17,0a8.59,8.59,0,0,1,2.61.31c2,.62,2.86,1.58,2.89,3.6.06,4.72,0,9.43,0,14.15,0,1.5-.94,2.24-2.38,3.15,2.38.81,2.39,2.46,2.37,4.2,0,4.08,0,8.15,0,12.23,0,.48,0,1,0,1.44s.11.66.49.68.49-.3.55-.64c0-.19-.1-.52.61-.49l3.3,5a16.8,16.8,0,0,1-4.17.22c-1.6,0-3.2,0-4.8,0-1.06,0-1.37-.39-1.36-1.4,0-4.32,0-8.63,0-12.95,0-1.84,0-3.68,0-5.52-.06-2-.72-2.69-2.75-2.8-.56,0-1.12,0-1.68,0s-.85.34-.87.89,0,1.28,0,1.92q0,11.37,0,22.75Z" transform="translate(-0.28 -0.36)" style="fill:#2a3d3f"/><path d="M279.53,228.31q0-5.51,0-11a21.43,21.43,0,0,1,.07-2.39,4.42,4.42,0,0,1,3.86-4.27,41.68,41.68,0,0,1,11.22-.38c2.63.24,3.73,1.42,4.29,4.08.61,2.93.25,5.89.29,8.84,0,2.78-.27,5.53-.07,8.34.28,3.89.1,7.82.06,11.74,0,3.76-1.54,5.43-5.32,5.64-2.95.17-5.91.19-8.86.07-3.69-.16-5.08-1.63-5.5-5.32C279,238.53,279.37,233.42,279.53,228.31Z" transform="translate(-0.28 -0.36)" style="fill:#2a3d3f"/><path d="M205.77,134.31a1.06,1.06,0,0,1,.45,0c.23-.31.67-.19.92-.44a4.86,4.86,0,0,1,2.79-.51c4,0,8,0,12,0a8.25,8.25,0,0,1,3.06.49,3.23,3.23,0,0,1,2.3,3.06c.05,4.13,0,8.26,0,12.86l-7.91-5.3A11.63,11.63,0,0,0,221.5,142c1.22-2.55.13-4.47-2.68-4.57-2-.07-4-.07-6,0-2.24.09-2.84.71-2.87,2.93,0,3.52,0,7,0,10.55,0,1.75.31,2.09,2.13,2.13,3.19.08,6.39,0,9.59,0a11.65,11.65,0,0,1,3.55.42c1.56.49,2.09,1.11,2.1,2.76,0,5.35.07,10.71,0,16.06-.05,3.12-1.64,4.75-4.76,4.83-4.39.11-8.79,0-13.18,0a7.52,7.52,0,0,1-3-.74,2.44,2.44,0,0,1-2.13-2.54c-.11-4.78-.48-9.57.2-14.34.14-.18.3-.46.54-.38a20,20,0,0,1,7.24,4.85c.61.57.24,1.34-.17,2a6.12,6.12,0,0,0-1.16,2.34c-.22,1.51.28,2.55,1.93,2.66a50.46,50.46,0,0,0,6.22,0,2.19,2.19,0,0,0,2.26-2.31c.15-3.35.09-6.7,0-10,0-1.74-1.25-2-2.64-2-3,0-6.07.1-9.09-.06-2.16-.11-4.37-.34-5.37-2.78-.25-5.5-.13-11-.07-16.48a4.35,4.35,0,0,1,.43-1.44,5,5,0,0,1,.32-.59,2.75,2.75,0,0,1,.39-.51C205.44,134.57,205.6,134.44,205.77,134.31Z" transform="translate(-0.28 -0.36)" style="fill:#2a3d3f"/><path d="M184.6,177a4.87,4.87,0,0,1-3.12-4.9c0-2,0-4,0-6q0-13.28,0-26.56c0-.64,0-1.28,0-1.91.14-2.59,1.16-3.74,3.7-4.2a8.24,8.24,0,0,1,1.43-.1q8.61,0,17.23,0c.61,0,1.58-.36,1.39.92-.2.87-.79,1.57-1.07,2.41-.69,1-1.17,2.28-2.65,2.54-.64.11-.62.86-.87,1.33-1.54,2.88-2.78,5.91-4.23,8.83-.35.7-.42,2-1.87,1.54-.82-1.33-.5-2.8-.54-4.22,0-1.84,0-3.68,0-5.51,0-2.91-.34-3.3-2.52-3.3-2.83,0-3.67.75-3.71,3.42,0,2.4,0,4.8,0,7.19,0,1.6.62,2.39,2.26,2.32a17.62,17.62,0,0,1,2.16,0c2.44.2,2.89.89,2.32,3.48-1.29,1.16-2.89.75-4.36.74-1.75,0-2.45.66-2.42,2.41.06,3.68,0,7.36,0,11,0,2.07.69,2.45,3.18,2.5,1.77,0,2.69-.53,2.64-2.46q-.11-4.43,0-8.87c0-.84-.14-2,.86-2.26.85-.22,1.35.75,1.72,1.43,2.72,5,5.86,9.73,8.15,14.94,1.58,3.41,1.58,3.42-2.22,3.42-5,0-10.07,0-15.1,0A4.49,4.49,0,0,1,184.6,177Z" transform="translate(-0.28 -0.36)" style="fill:#2a3d3f"/><path d="M265.86,225a24.11,24.11,0,0,0,1.2-9.33c-.06-1.9-.69-2.61-2.32-2.68-1.81-.08-2.63.61-2.64,2.58a71.79,71.79,0,0,0,.21,10.06c.29,2.17,1.08,2.74,3.23,2.38a57.7,57.7,0,0,0,5.76-1.63c2.82-.78,3.89,0,3.94,2.95.09,5.52.12,11,.12,16.55,0,2-.67,2.7-2.69,2.9a9,9,0,0,1-1.44,0c-2.39-.16-3.1-.9-3-3.31.07-3.52.19-7,.32-10.54.09-2.49-.7-3.76-3.81-3.55-2,.13-2.66.88-2.69,2.93,0,3.44,0,6.88,0,10.31,0,3.73-.83,4.49-4.58,4-1.74-.25-2.24-.69-2.36-2.43-.09-1.27,0-2.56,0-3.83,0-9.83.12-19.67-.19-29.5-.07-2.1.55-2.72,2.67-2.74q5,0,10.07,0a16.88,16.88,0,0,1,2.6.35,3,3,0,0,1,2.63,2.73,48.71,48.71,0,0,1,.36,6.21,4.1,4.1,0,0,1-3.08,4.1C268.81,224,267.54,224.46,265.86,225Z" transform="translate(-0.28 -0.36)" style="fill:#2a3d3f"/><path d="M248.5,154.91q0,8,0,16.06a17.08,17.08,0,0,1-.07,2.15,4.07,4.07,0,0,1-3.86,3.91,67.37,67.37,0,0,1-10.77,0,4.05,4.05,0,0,1-3.91-3.6,12.32,12.32,0,0,1-.14-2.39q0-16.3,0-32.6c0-3.61,1.24-5,4.8-5.09,3-.09,6.07,0,9.11,0a7,7,0,0,1,1.43.15c2.45.52,3.41,1.63,3.42,4.14C248.52,143.4,248.5,149.16,248.5,154.91Z" transform="translate(-0.28 -0.36)" style="fill:#2a3d3f"/><path d="M332.85,173.81q0-11.49.07-23c0-5,0-10.06,0-15.09.51-1.8,2.09-2.21,3.55-2.28a97.94,97.94,0,0,1,10.77,0c3,.21,4,1.88,4,4.35-.06,11.33,0,22.67,0,34,0,3.7-1.54,5.27-5.22,5.35-3,.07-6.07.06-9.09-.07C334.84,177,333.18,176.15,332.85,173.81Z" transform="translate(-0.28 -0.36)" style="fill:#2a3d3f"/><path d="M252.37,138.75l-3.55-5.34c3.55-.14,6.76-.05,10-.07s6.4,0,10.1,0a10.1,10.1,0,0,1-3.64,2.14c-3,1-3.69,2.89-3.61,6,.23,9.43.08,18.88.08,28.32,0,2.2-.13,2,2.11,2,2.4,0,4.8-.1,7.2,0,1.48.08,2.08-.42,2.21-2.08L279,177H249.43a11.26,11.26,0,0,1,3.56-2.77c2.68-1.39,3.42-3.37,3.35-6.37-.22-9.51-.08-19-.09-28.56,0-.61.31-1.45-.37-1.76a3.85,3.85,0,0,0-2.79,0C252.61,137.71,253,138.47,252.37,138.75Z" transform="translate(-0.28 -0.36)" style="fill:#2b3e40"/><path d="M232.49,229.53q0-7.55,0-15.09c0-.48,0-1,0-1.44.07-2.53.49-3,2.94-3l11.26,0a12.6,12.6,0,0,1,1.43.06,1.46,1.46,0,0,1,1.37,1.65,1.38,1.38,0,0,1-1.27,1.49,12.58,12.58,0,0,1-4.53,0c-3.28-.61-4.18,1.2-4.39,3.58a25.12,25.12,0,0,0,.39,6.92c.26,1.37.64,1.62,2,1.26a29.33,29.33,0,0,0,3.38-1.17c.79-.32,1.43-.29,1.85.48a1.62,1.62,0,0,1-.35,2.34,8.32,8.32,0,0,1-1.73.78c-2,.77-4,1.56-6,2.27-.89.31-1.13.69-.65,1.56a16.41,16.41,0,0,1,1.62,9.07c-.13,2.15-.35,4.29-.5,6.44a1.83,1.83,0,0,1-1.23,1.86,8,8,0,0,1-4.48,0c-1-.28-1.1-1.29-1.11-2.18,0-2,0-4,0-6q0-5.51,0-11Z" transform="translate(-0.28 -0.36)" style="fill:#2a3d3f"/><path d="M184.6,177h20.54c0-1.38-1.2-2.16-1.35-3.35a111.17,111.17,0,0,1-.2-12.57c0-.8-.11-1.76.89-2.23.28-.13.53-.12.25,0,0,0,0,.27.06.44a130.3,130.3,0,0,0-.08,13.77,5.45,5.45,0,0,0,1.66,3.32,3,3,0,0,1-2.43,1.15c-5.78-.06-11.56,0-17.35,0C185.89,177.52,185.14,177.65,184.6,177Z" transform="translate(-0.28 -0.36)" style="fill:#dadddd"/><path d="M203.83,136.21a3.53,3.53,0,0,1,1.37-1.94l.58,0a3,3,0,0,1-.06.45,2.53,2.53,0,0,0-.43.5l0,0c-.34.2-.23.61-.41.88a8,8,0,0,0-.23,2.82q0,7.48,0,15c-1.13-.31-1.07-1.31-1.07-2.12C203.59,146.64,203.24,141.42,203.83,136.21Z" transform="translate(-0.28 -0.36)" style="fill:#cdd2d2"/><path d="M396.77,200.57a11.94,11.94,0,0,1,7.19,0l.15.18-.15.18a14.24,14.24,0,0,1-7.19,0q-.24-.12-.16-.24C396.66,200.61,396.71,200.57,396.77,200.57Z" transform="translate(-0.28 -0.36)" style="fill:#cb6d75"/><path d="M409.44,130.9a3.23,3.23,0,0,1-.44-3.1c.06-.29.19-.62.57-.63s.54.27.71.54C411,128.83,410.81,129.5,409.44,130.9Z" transform="translate(-0.28 -0.36)" style="fill:#c9656e"/><path d="M409.92,188.39a1,1,0,0,1-.88-1,.77.77,0,0,1,.69-.82c.64-.09.77.43.81.9A.83.83,0,0,1,409.92,188.39Z" transform="translate(-0.28 -0.36)" style="fill:#cd7079"/><path d="M328.5,170.8c-.39.22-.44.79-.93.9a9.17,9.17,0,0,1,0-.94c0-.28-.12-.73.28-.76S328.42,170.42,328.5,170.8Z" transform="translate(-0.28 -0.36)" style="fill:#4a5a5c"/><path d="M409.72,200.91c-.07-.1-.23-.22-.21-.29a.35.35,0,0,1,.48-.29c.08,0,.15.29.1.39S409.85,200.85,409.72,200.91Z" transform="translate(-0.28 -0.36)" style="fill:#e0a8ad"/><path d="M280.1,142.89l0,.64c-.21.41-.61.38-1,.44a.35.35,0,0,1-.13-.38q.07-.19.13-.19Z" transform="translate(-0.28 -0.36)" style="fill:#647273"/><path d="M279.16,143.4V144c-.17.3-.53.5-.66.14S278.77,143.49,279.16,143.4Z" transform="translate(-0.28 -0.36)" style="fill:#acb4b4"/><path d="M207.15,133.85a1,1,0,0,1-.92.44A.85.85,0,0,1,207.15,133.85Z" transform="translate(-0.28 -0.36)" style="fill:#2a3d3f"/><path d="M396.77,200.57q0,.18,0,.36c-.24,0-.6,0-.6-.18S396.52,200.52,396.77,200.57Z" transform="translate(-0.28 -0.36)" style="fill:#d07880"/><path d="M404,200.95q0-.18,0-.36l.39.18Z" transform="translate(-0.28 -0.36)" style="fill:#cf7980"/><path d="M394.12,159.79c0,.05.12.11.12.16s-.09.09-.15.13-.12-.11-.12-.16S394.07,159.83,394.12,159.79Z" transform="translate(-0.28 -0.36)" style="fill:#d4848b"/><path d="M196.16,441.3c2.44,1.36,2.86,3.27,2.76,5.5-.2,4.31-.17,8.63,0,12.95a10.88,10.88,0,0,1,0,1.91,2.58,2.58,0,0,1-2.22,2.47,26.64,26.64,0,0,1-7.88.15,3.1,3.1,0,0,1-2.83-2.8,35.26,35.26,0,0,1-.32-6.69q0-19.91.08-39.82c0-3.36,0-6.71.07-10.07,0-.48,0-1,.07-1.44.28-3.19.79-3.77,4-3.78,7.43,0,14.87,0,22.31.07,4.89.07,7.14,2.21,7.76,7a19.06,19.06,0,0,1,.13,2.39q.06,24.95.1,49.89c0,4.57-.71,5.32-5.22,5.39a38,38,0,0,1-4.55-.07c-2.28-.24-3.08-1.05-3.46-3.29a14.5,14.5,0,0,1-.16-2.39c0-5.6,0-11.19,0-16.79,0-3.9-.8-4.46-4.38-3C200.38,439.72,198.43,440.43,196.16,441.3Z" transform="translate(-0.28 -0.36)" style="fill:#feffff"/><path d="M227,400.11c1.72-.1,3.15-.25,4.57-.24,7.19,0,14.39-.06,21.58.15,4.11.12,6.35,2.77,6.35,6.55,0,4-.15,8-.2,12a4.15,4.15,0,0,1-3,4.14c-3.43,1.32-6.81,2.76-10.21,4.16-.83.34-1.63.74-2.4-.09,0-.16,0-.37.09-.45a12.74,12.74,0,0,0,3.86-9.73,70.78,70.78,0,0,1,.19-7.9c.22-1.94-.69-2.74-2.69-2.8a11.71,11.71,0,0,0-1.91.1,2.08,2.08,0,0,0-1.95,2.07c-.05.64,0,1.28,0,1.92q0,8.75,0,17.51c0,.32,0,.64,0,1,.14,2.14.93,2.74,2.94,2,2.86-1,5.69-2.11,8.53-3.18l5.6-2.14a7.21,7.21,0,0,1,2.07-.56,1.61,1.61,0,0,1,1.89,1.42,11.29,11.29,0,0,1,.14,2.15q-.05,13.55-.13,27.1c0,1,0,2.08-.14,3.11-.4,4-2.51,6-6.6,6.1-3.68.07-7.36,0-11,0l-10.79-.05c-.48,0-1,0-1.44,0-3.24-.14-4.32-1.17-4.37-4.39s0-6.56,0-9.83q0-22.43,0-44.85A15.13,15.13,0,0,0,227,400.11Z" transform="translate(-0.28 -0.36)" style="fill:#feffff"/><path d="M267.68,432.73q0-11.51,0-23a21.92,21.92,0,0,1,.42-4.52,5.92,5.92,0,0,1,4.91-4.94,15.32,15.32,0,0,1,3.09-.38q8.27-.05,16.54,0a20.65,20.65,0,0,1,3.34.34,6.51,6.51,0,0,1,5.72,5.9,26.7,26.7,0,0,1,.17,3.59q0,22.9-.09,45.79c0,.64,0,1.28-.05,1.92-.34,4.42-2.75,6.91-7.19,7.1-4.23.17-8.47.11-12.7.12-2,0-4-.07-6-.1a14.05,14.05,0,0,1-3.08-.37c-3.29-.8-4.82-2.41-5.07-5.78-.17-2.39-.09-4.79-.09-7.19q0-9.23,0-18.46Z" transform="translate(-0.28 -0.36)" style="fill:#feffff"/><path d="M307.56,400.71a1.49,1.49,0,0,1,1.37-.7,36.9,36.9,0,0,1,8.61.14c2.53.4,3.62,1.4,4.16,3.94a26.54,26.54,0,0,1,.31,5.5q0,20.26-.08,40.53c0,1,0,2.08.09,3.11a5.48,5.48,0,0,0,3.69,5.12c1.83.73,3.66,1.48,5.8,2.36a38.28,38.28,0,0,1-1.52-5.43c-.74-4.94-.29-9.9-.32-14.84-.08-11.59,0-23.18,0-34.77a12.3,12.3,0,0,1,.25-3.1c.51-2,1.57-2.94,3.59-2.71a26.28,26.28,0,0,0,5.48.06c2.3-.22,3.35.79,3.72,3.1a31.46,31.46,0,0,1,0,5.26c-.08,13.83-.23,27.66-.22,41.48a11.25,11.25,0,0,1-3.56,8.79c-1.69,1.58-3.26,3.3-4.85,5-2.5,2.66-5.33,3.54-8.86,2.07-2.8-1.16-5.7-2.06-8.46-3.34-5.68-2.66-8.41-7.15-8.29-13.37.08-4.47.64-8.92.61-13.41q-.09-15.34-.07-30.69A7.78,7.78,0,0,0,307.56,400.71Z" transform="translate(-0.28 -0.36)" style="fill:#feffff"/><path d="M350.2,400.5a3,3,0,0,1,2-.32q12.48,0,25,0h.72c2.82.08,3.89,1.5,3.21,4.2a2.35,2.35,0,0,1-2.49,2.13,27.47,27.47,0,0,1-6.22-.2,25.33,25.33,0,0,0-3.1-.24c-2.55,0-3.45.74-4.15,3.11a18.07,18.07,0,0,0-.58,5.46q.06,4.08.2,8.15c.08,2.27.73,2.77,2.81,2.06,2.42-.82,4.81-1.71,7.2-2.61,1.69-.63,2.29-.37,2.84,1.34,1,3,0,4.85-3,6-3.45,1.26-6.91,2.5-10.37,3.75a5.31,5.31,0,0,0-1.91.86c0,.18,0,.41.11.46,2.31,1.39,2.63,3.43,2.46,6-.36,5.34-.06,10.71-.36,16.06-.09,1.54.24,1.77,1.83,1.8,3.52.06,7,.08,10.55.14.72,0,1.44.08,2.15.15a1.86,1.86,0,0,1,1.27.61c1.09,1.24.86,2.71.52,4.1a2.16,2.16,0,0,1-2.44,1.53c-6.63-.2-13.28.36-19.9-.35-4.36-.47-6.1-2.13-6.71-6.43a29,29,0,0,1-.17-4.07q0-24.11.08-48.23A9.12,9.12,0,0,0,350.2,400.5Z" transform="translate(-0.28 -0.36)" style="fill:#feffff"/><path d="M295.11,140.52c0,2.37,0,4.52,0,6.66q0,10.54,0,21.08c0,.64,0,1.28-.05,1.91a1.5,1.5,0,0,1-1.5,1.56c-1.59.06-3.19,0-4.79,0a1.5,1.5,0,0,1-1.56-1.5,16.5,16.5,0,0,1-.07-1.67q0-12.33,0-24.67c0-2.25,0-2.3,2.26-2.69A24.7,24.7,0,0,1,295.11,140.52Z" transform="translate(-0.28 -0.36)" style="fill:#fff"/><path d="M165.79,144.65c0-2,0-4,0-6,0-.88.25-1.39,1.22-1.29h.24c3.49-.17,3.87.18,3.88,3.66,0,2.72,0,5.44,0,8.15,0,2.23-.45,2.65-2.65,2.74-.48,0-1,0-1.44,0-1,.08-1.26-.38-1.25-1.27C165.81,148.65,165.79,146.65,165.79,144.65Z" transform="translate(-0.28 -0.36)" style="fill:#fdfdfd"/><path d="M284.92,245.4c1.74-1.6,1.57-3.46,1.57-5.28q0-11.24,0-22.49c0-.56,0-1.12,0-1.67.16-2.25,1.56-3.26,3.74-2.75a2.28,2.28,0,0,1,2,2.28c.05,1.59.15,3.19.09,4.78-.26,6.78-.06,13.55-.13,20.33,0,.56,0,1.12,0,1.67-.1,3-.78,3.6-3.81,3.41C287.37,245.63,286.37,245.52,284.92,245.4Z" transform="translate(-0.28 -0.36)" style="fill:#fefefe"/><path d="M203.83,136.21c.67.66.36,1.5.37,2.25,0,4.42,0,8.85,0,13.27,0,.76-.26,1.6.44,2.23,1.15,1.7,3,1.75,4.72,1.8,3,.09,6.08,0,9.12,0a17.9,17.9,0,0,1,1.92.08,1.57,1.57,0,0,1,1.57,1.75c0,3.84,0,7.68,0,11.52,0,1.86-.81,2.56-2.7,2.62-2.16.07-4.32.06-6.48,0s-3-1-2.8-3.18c.12-1.67,1.18-2.74,2.52-4l-7.7-5.26c-.56.66-.57.66-.57,1.06,0,3.67,0,7.35,0,11,0,.76.33,1.61-.41,2.25l-9.08-15.86c-.62.48-.38,1.06-.39,1.53,0,3.6,0,7.19,0,10.79,0,1.65,0,1.66-1.73,1.68-1.2,0-2.4,0-3.59,0-1.51-.12-2-.61-2.05-2.09-.05-4.71,0-9.43,0-14.15,0-.85.37-1.1,1.17-1.09,2,0,4,0,6,0,.92-1-.08-2.54,1.07-3.43,1.68-4.14,3.78-8.09,5.61-12.16.41-.91.65-.44,1,0a4.85,4.85,0,0,0,.69-.62C202.91,137.52,203.36,136.86,203.83,136.21Z" transform="translate(-0.28 -0.36)" style="fill:#fff"/><path d="M204.86,136.18a.8.8,0,0,1,.41-.88A1.06,1.06,0,0,1,204.86,136.18Z" transform="translate(-0.28 -0.36)" style="fill:#2a3d3f"/><path d="M205.29,135.26a.49.49,0,0,1,.43-.5Z" transform="translate(-0.28 -0.36)" style="fill:#2a3d3f"/><path d="M195.12,151c-.44,1.12,0,2.51-1.07,3.43,0-.32.08-.64.07-1,0-1.73,0-1.74-1.68-1.77-1.44,0-2.88,0-4.31,0-.93,0-1.26-.32-1.25-1.25,0-3.6,0-7.19,0-10.79,0-1.57.41-1.89,2-2.17l.48-.06c5.26-.57,5.26-.57,5.26,4.66,0,2.4,0,4.8,0,7.19C194.66,149.85,194.38,150.56,195.12,151Z" transform="translate(-0.28 -0.36)" style="fill:#fefefe"/><path d="M243.16,154.79c0,4.63,0,9.26,0,13.89,0,2.85-.27,3.09-3.19,3.11-1,0-1.92,0-2.87,0a1.82,1.82,0,0,1-2-1.91c0-.48,0-1,0-1.44q0-13.77,0-27.55c0-.32,0-.64,0-1,.09-2,.5-2.43,2.38-2.54a27.76,27.76,0,0,1,3.35,0c1.9.12,2.32.55,2.33,2.55C243.18,144.89,243.16,149.84,243.16,154.79Z" transform="translate(-0.28 -0.36)" style="fill:#fefefe"/><path d="M344.16,137.59a1.36,1.36,0,0,1,1.64,1.32,12,12,0,0,1,.07,1.91q0,13.78,0,27.57c0,.4,0,.8,0,1.2-.11,1.68-.51,2.13-2.16,2.19-1.19,0-2.39-.05-3.58-.09-1-1.07-.77-2.39-.78-3.65q0-13.17,0-26.33C339.34,137.21,339.57,137,344.16,137.59Z" transform="translate(-0.28 -0.36)" style="fill:#fff"/><path d="M344.16,137.59c-1,0-1.92.07-2.87.08a1,1,0,0,0-1.16,1.19c0,.64,0,1.28,0,1.92q0,15.46,0,30.91c-1.88-.18-2.17-.42-2.31-2,0-.48,0-1,0-1.44q0-13.67,0-27.34c0-.56,0-1.12,0-1.68a1.78,1.78,0,0,1,1.83-1.83A13.24,13.24,0,0,1,344.16,137.59Z" transform="translate(-0.28 -0.36)" style="fill:#fafafa"/><path d="M198.93,419.89c0-3.44,0-6.87,0-10.31,0-2.11.49-3.17,1.87-3.46,1.79-.37,3.68-.61,5.23.79a2.78,2.78,0,0,1,.74,2.21c0,6,0,12-.12,18,0,2.5-3.21,5.43-5.77,5.59-1.33.08-2-.52-2-2,0-3.59,0-7.19,0-10.78Z" transform="translate(-0.28 -0.36)" style="fill:#be434e"/><path d="M238.93,457.52c2-1.29,2-3.19,2-5.13,0-4.06.37-8.12,0-12.19-.12-1.42.07-3,1.69-3.64a6,6,0,0,1,5.09.13,2.68,2.68,0,0,1,1.26,2.67c0,1.83-.06,3.67-.1,5.5a78,78,0,0,0,.19,7.89,13.14,13.14,0,0,1,.05,1.67c-.13,2.72-1.39,3.88-4.13,3.77-1,0-1.9-.24-2.85-.29s-1.9,0-2.85,0Z" transform="translate(-0.28 -0.36)" style="fill:#be434e"/><path d="M278.49,457.65c2-1.38,2.17-3,2.16-4.73,0-8.47,0-16.94.08-25.41,0-5.67.1-11.35.14-17,0-.16,0-.32,0-.48-.06-3.48,1.44-4.26,4.72-3.92,2.27.24,3.15,1.27,3.17,3.71,0,4.63,0,9.27-.09,13.91q-.17,14.14.05,28.28a17.08,17.08,0,0,1-.09,2.63c-.38,2.68-1.67,3.77-4.4,3.63C282.51,458.16,280.78,457.9,278.49,457.65Z" transform="translate(-0.28 -0.36)" style="fill:#be434e"/></svg>