<svg xmlns="http://www.w3.org/2000/svg" viewBox="0 0 143.96 128.08"><title>paper</title><g id="Layer_2" data-name="Layer 2"><g id="Layer_1-2" data-name="Layer 1"><path d="M8.54,81c.12-1.6.17-3.09.35-4.56.5-4.27,1.07-8.52,1.58-12.79.23-1.95.44-3.9.6-5.85a7.77,7.77,0,0,0-1-4.44A77.13,77.13,0,0,1,3.48,37.94a22.93,22.93,0,0,1-1-7.74C2.71,26,5,23.38,9.14,22.58a32.14,32.14,0,0,1,10-.6,17.87,17.87,0,0,1,13.35,8,27.46,27.46,0,0,1,4.16,11.06c.45,2.81.63,5.66.91,8.49.05.5.07,1,.11,1.8.59-.44,1-.74,1.42-1.08A142.27,142.27,0,0,0,54.22,35.65c6.49-7.19,12.36-14.87,18.31-22.5,1.44-1.84,2.88-3.68,4.41-5.44A21.36,21.36,0,0,1,89.78.29,17.9,17.9,0,0,1,101,1.83c7.31,3.65,8.94,11.14,3.85,17.53-2.12,2.67-4.31,5.3-6.27,8.08-3,4.27-5.88,8.66-8.8,13-.15.22-.25.46-.5.94.45-.23.64-.32.83-.43l16.52-9.48c1.54-.88,3-1.83,4.59-2.69,7.23-4,14.38-3.68,21.41.54a15,15,0,0,1,4.89,4.75,10.37,10.37,0,0,1-1.13,13.27,23.8,23.8,0,0,1-4.87,3.75c-5.5,3.53-11,7.05-16.45,10.68-2.83,1.89-5.52,4-8.27,6a2.84,2.84,0,0,0-.93,1.08c1.41-.21,2.83-.36,4.22-.65,5.57-1.17,11.13-2.39,16.69-3.6a15.86,15.86,0,0,1,13.62,3c4.62,3.58,4.52,8.91,1.11,13.1a8.08,8.08,0,0,1-2.72,1.93c-3.31,1.63-6.66,3.17-10,4.71-8.19,3.75-16.41,7.43-24.56,11.26a79.65,79.65,0,0,0-8.55,4.78,52.32,52.32,0,0,0-6.39,4.77,65.66,65.66,0,0,1-29.08,15,51.08,51.08,0,0,1-21.83,0l-1-.19c-.25.39-.5.77-.74,1.16a8.8,8.8,0,0,1-9,3.85A23,23,0,0,1,15.3,121.7,60.35,60.35,0,0,1,1.58,101.41,19.76,19.76,0,0,1,.19,91C.89,86,3.25,82.32,8.54,81ZM85.4,86.17l-.24-.23c.35-.65.68-1.3,1.05-1.94A57.18,57.18,0,0,1,99.13,68.81c3.49-2.88,7.1-5.63,10.76-8.31,6.37-4.67,13-8.9,19.77-13a19.29,19.29,0,0,0,3.75-2.9c2.45-2.51,2.61-5.49.67-8.43a11.48,11.48,0,0,0-3.85-3.62c-5.62-3.26-11.32-3.47-17-.28-2.82,1.56-5.61,3.18-8.38,4.82q-9.65,5.7-19.27,11.44a15.4,15.4,0,0,0-4.37,3.89q-4.61,6-9.18,12l-.86,1.14a1.26,1.26,0,0,1,0-.9,60.51,60.51,0,0,1,7.52-15q4.53-6.66,9-13.38c4.44-6.7,8.83-13.43,14.09-19.54a7.92,7.92,0,0,0,.5-.67c2.62-3.78,1.85-7.62-2-10.11a12.33,12.33,0,0,0-1.6-.85,14,14,0,0,0-8.09-.94A17.53,17.53,0,0,0,80,10.34c-1.08,1.23-2.08,2.52-3.11,3.8-5.68,7.07-11.24,14.23-17,21.18A134.19,134.19,0,0,1,39,55.49a24.66,24.66,0,0,1-2.26,1.66,2,2,0,0,1-3-1.47,10.21,10.21,0,0,1,0-1.54,62.21,62.21,0,0,0-.89-12.28,25.63,25.63,0,0,0-3.6-9.64,13.26,13.26,0,0,0-7.05-5.49c-4.42-1.44-8.85-1-13.26.06A2.9,2.9,0,0,0,6.72,29a9,9,0,0,0-.3,1.93,19.23,19.23,0,0,0,1,6.33A77.92,77.92,0,0,0,13.88,52a9.46,9.46,0,0,1,1.17,4.14A20,20,0,0,1,15,59.33c-.53,4.4-1.11,8.8-1.68,13.2A69.75,69.75,0,0,0,12.63,85a26.31,26.31,0,0,0,2.93,11.15A66.42,66.42,0,0,0,28.15,113a34.49,34.49,0,0,0,4.56,3.7,13.3,13.3,0,0,0,3.89,1.84,46.77,46.77,0,0,0,22.74.62,60.45,60.45,0,0,0,27.32-14.13A42.85,42.85,0,0,1,93.52,100c3-1.74,5.94-3.55,9.06-5,8.31-3.92,16.71-7.66,25.07-11.49,3.05-1.4,6.1-2.81,9.13-4.27a5,5,0,0,0,1.9-1.38c1.9-2.66,1.8-5.2-.95-7.21a11.78,11.78,0,0,0-10.23-2,173.87,173.87,0,0,1-25.16,4.7,7.93,7.93,0,0,0-4.65,2q-3.81,3.42-7.65,6.8C88.5,83.48,86.94,84.82,85.4,86.17Zm-76.84-1a4.67,4.67,0,0,0-2.87,2.07,10.1,10.1,0,0,0-1.21,2.66,15.78,15.78,0,0,0,1,10.4,56.62,56.62,0,0,0,12.66,18.49,24,24,0,0,0,2,1.73A17.41,17.41,0,0,0,28.45,124a4.13,4.13,0,0,0,4.74-2.35,28.17,28.17,0,0,1-7.06-5A69.44,69.44,0,0,1,11.58,97.06a25.1,25.1,0,0,1-2.44-7.57C8.94,88.11,8.76,86.72,8.55,85.21Z"/><path d="M85.4,86.17c1.55-1.35,3.1-2.69,4.64-4.05q3.83-3.39,7.65-6.8a7.93,7.93,0,0,1,4.65-2,173.87,173.87,0,0,0,25.16-4.7,11.78,11.78,0,0,1,10.23,2c2.75,2,2.84,4.55.95,7.21a5,5,0,0,1-1.9,1.38c-3,1.46-6.07,2.88-9.13,4.27C119.29,87.29,110.89,91,102.58,95c-3.12,1.47-6.08,3.28-9.06,5a42.85,42.85,0,0,0-6.85,5.09,60.45,60.45,0,0,1-27.32,14.13,46.77,46.77,0,0,1-22.74-.62,13.3,13.3,0,0,1-3.89-1.84,34.49,34.49,0,0,1-4.56-3.7,66.42,66.42,0,0,1-12.59-16.9A26.31,26.31,0,0,1,12.63,85a69.75,69.75,0,0,1,.67-12.44c.57-4.4,1.15-8.8,1.68-13.2a20,20,0,0,0,.07-3.22A9.46,9.46,0,0,0,13.88,52,77.92,77.92,0,0,1,7.44,37.24a19.23,19.23,0,0,1-1-6.33A9,9,0,0,1,6.72,29a2.9,2.9,0,0,1,2.15-2.2c4.41-1.09,8.84-1.5,13.26-.06a13.26,13.26,0,0,1,7.05,5.49,25.63,25.63,0,0,1,3.6,9.64,62.21,62.21,0,0,1,.89,12.28,10.21,10.21,0,0,0,0,1.54,2,2,0,0,0,3,1.47A24.66,24.66,0,0,0,39,55.49,134.19,134.19,0,0,0,59.8,35.32c5.81-7,11.37-14.12,17-21.18,1-1.28,2-2.57,3.11-3.8A17.53,17.53,0,0,1,90.52,4.22a14,14,0,0,1,8.09.94,12.33,12.33,0,0,1,1.6.85c3.88,2.48,4.65,6.32,2,10.11a7.92,7.92,0,0,1-.5.67c-5.26,6.1-9.65,12.84-14.09,19.54Q83.2,43,78.67,49.7a60.51,60.51,0,0,0-7.52,15,1.26,1.26,0,0,0,0,.9L72,64.43q4.59-6,9.18-12a15.4,15.4,0,0,1,4.37-3.89q9.63-5.73,19.27-11.44c2.77-1.64,5.56-3.25,8.38-4.82,5.73-3.18,11.43-3,17,.28a11.48,11.48,0,0,1,3.85,3.62c1.94,2.94,1.78,5.92-.67,8.43a19.29,19.29,0,0,1-3.75,2.9c-6.74,4.12-13.4,8.36-19.77,13-3.65,2.68-7.27,5.42-10.76,8.31A57.18,57.18,0,0,0,86.21,84c-.37.63-.7,1.29-1.05,1.94ZM29.45,103.91a9.71,9.71,0,0,0,1.35-.62c2.64-1.66,5.33-3.26,7.88-5.06,4-2.79,7.84-5.71,11.73-8.6a2,2,0,0,0,.7-2.9c-.68-1-1.88-1.12-3.07-.3-.69.48-1.36,1-2,1.49A173.75,173.75,0,0,1,28.54,100a3,3,0,0,0-.76.61,1.86,1.86,0,0,0-.29,2.09A2.14,2.14,0,0,0,29.45,103.91ZM52,99.78a16.89,16.89,0,0,0-1.59.68,73.76,73.76,0,0,1-15,6.14,3.55,3.55,0,0,0-.66.23,2,2,0,0,0-1.05,2.35,2,2,0,0,0,2.29,1.4c.41-.07.8-.23,1.21-.34a77.8,77.8,0,0,0,15.55-6.51,3.61,3.61,0,0,0,.8-.54A2,2,0,0,0,54,101,2.18,2.18,0,0,0,52,99.78ZM22.27,95.57a10.7,10.7,0,0,0,1.47-.86A122,122,0,0,0,35.35,84a3.75,3.75,0,0,0,.38-.41,2,2,0,0,0-.18-2.66A1.9,1.9,0,0,0,33,80.78a7.65,7.65,0,0,0-.93.85A118.17,118.17,0,0,1,21,91.84a2.93,2.93,0,0,0-.75.82C19.48,94,20.4,95.52,22.27,95.57Z" style="fill:#fff"/><path d="M8.55,85.21c.21,1.52.38,2.9.59,4.29a25.1,25.1,0,0,0,2.44,7.57,69.44,69.44,0,0,0,14.56,19.58,28.17,28.17,0,0,0,7.06,5A4.13,4.13,0,0,1,28.45,124a17.41,17.41,0,0,1-8.32-3.43,24,24,0,0,1-2-1.73A56.62,56.62,0,0,1,5.45,100.34a15.78,15.78,0,0,1-1-10.4,10.1,10.1,0,0,1,1.21-2.66A4.67,4.67,0,0,1,8.55,85.21Z" style="fill:#fff"/><path d="M29.45,103.91a2.14,2.14,0,0,1-2-1.21,1.86,1.86,0,0,1,.29-2.09,3,3,0,0,1,.76-.61A173.75,173.75,0,0,0,46,87.93c.67-.51,1.34-1,2-1.49,1.19-.82,2.39-.7,3.07.3a2,2,0,0,1-.7,2.9c-3.9,2.89-7.77,5.81-11.73,8.6-2.55,1.8-5.24,3.4-7.88,5.06A9.71,9.71,0,0,1,29.45,103.91Z"/><path d="M52,99.78a2.18,2.18,0,0,1,2,1.2,2,2,0,0,1-.4,2.2,3.61,3.61,0,0,1-.8.54,77.8,77.8,0,0,1-15.55,6.51c-.4.11-.8.27-1.21.34a2,2,0,0,1-2.29-1.4,2,2,0,0,1,1.05-2.35,3.55,3.55,0,0,1,.66-.23,73.76,73.76,0,0,0,15-6.14A16.89,16.89,0,0,1,52,99.78Z"/><path d="M22.27,95.57c-1.87,0-2.79-1.62-2-2.91a2.93,2.93,0,0,1,.75-.82A118.17,118.17,0,0,0,32.07,81.63a7.65,7.65,0,0,1,.93-.85,1.9,1.9,0,0,1,2.55.16,2,2,0,0,1,.18,2.66,3.75,3.75,0,0,1-.38.41,122,122,0,0,1-11.61,10.7A10.7,10.7,0,0,1,22.27,95.57Z"/></g></g></svg>