<svg xmlns="http://www.w3.org/2000/svg" viewBox="0 0 109.75 93.73"><title>rock</title><g id="Layer_2" data-name="Layer 2"><g id="Layer_1-2" data-name="Layer 1"><path d="M109.75,49.81A9.29,9.29,0,0,0,109.5,51a18.86,18.86,0,0,1-3.87,10.06,8,8,0,0,1-8.07,3.43L96,64.27c-.18.26-.34.48-.48.72-6,10.64-14.94,18-26,22.91A67.42,67.42,0,0,1,48,93.32a79.09,79.09,0,0,1-13.16.23A35.07,35.07,0,0,1,22,90.44c-4.27-2.09-7.37-5.21-8.6-9.94-.21-.81-.34-1.64-.52-2.55-.17-.05-.39-.13-.6-.19C6.2,76.16,2.53,72.13.81,66.22A19.43,19.43,0,0,1,1.14,54.1a13.32,13.32,0,0,1,5.12-6.75L5.17,46.19A15.31,15.31,0,0,1,.58,35c.22-6.24,3.36-10.66,8.86-13.41A17.11,17.11,0,0,1,19.4,20c.55.07,1.1.11,1.76.18.19-.53.35-1,.53-1.48.48-1.27.91-2.55,1.45-3.79A23.52,23.52,0,0,1,40.43.74,35.09,35.09,0,0,1,54.08.6a61.31,61.31,0,0,1,29.8,13.67,5.1,5.1,0,0,0,.43.28c.21-.1.46-.2.69-.33a9.61,9.61,0,0,1,8.63-.67,18.39,18.39,0,0,1,9.32,8.14A43.34,43.34,0,0,1,107.19,32a50.38,50.38,0,0,1,2.33,12.78,3.24,3.24,0,0,0,.22.78Zm-78.63-.9c-6.2,2-12.46,2-18.76,1.08a5.88,5.88,0,0,0-4.8,1.42,8.68,8.68,0,0,0-2.67,4A15.5,15.5,0,0,0,6,68.32a11,11,0,0,0,9.59,5.87c6.3.37,12.6.7,18.89,1.06.33,0,.66.08,1,.13-5.91,2.39-12.12,2.53-18.39,2.75a9.79,9.79,0,0,0,2.76,5.93,15.24,15.24,0,0,0,5.92,3.63A31.66,31.66,0,0,0,36,89.59c3.68.08,7.38,0,11.06-.23a60.71,60.71,0,0,0,20.06-4.79C78.27,79.84,87,72.5,92.8,61.74a14.48,14.48,0,0,0,1.74-5.58,44.48,44.48,0,0,0,.17-5A66.31,66.31,0,0,0,92,34.72c-1.3-4.62-3-9.09-6.21-12.74a48.86,48.86,0,0,0-5.58-5.5,56.63,56.63,0,0,0-27.37-12,30.56,30.56,0,0,0-11.7.22A19.62,19.62,0,0,0,26.64,16.86q-.51,1.23-1,2.48c-.14.38-.22.78-.34,1.22.29,0,.48.06.66.06A33.3,33.3,0,0,0,41.55,17c2.46-1.33,4.8-2.88,7.2-4.32.28-.17.59-.3.88-.44-2,1.88-3.7,3.9-5.61,5.75a21.35,21.35,0,0,1-10.28,5.43,31.07,31.07,0,0,1-4.27.75c-3.15.27-6.28.62-9.47-.06A13,13,0,0,0,9.65,26a10.66,10.66,0,0,0-5,11c.53,3.63,3.56,8.43,8.63,9.24,4.7.75,9.41,1.48,14.11,2.2C28.66,48.61,29.89,48.74,31.12,48.9ZM87.34,17.54c.34.41.56.71.8,1a32.41,32.41,0,0,1,6.18,10.42,74.27,74.27,0,0,1,3.59,13.94,48,48,0,0,1,.62,13.39c-.17,1.37-.44,2.73-.67,4.09a3.41,3.41,0,0,0,3.64-.74,11.06,11.06,0,0,0,2-2.52,17.55,17.55,0,0,0,2.31-8.7,55.14,55.14,0,0,0-2.95-16.9,35.46,35.46,0,0,0-3.52-8.07A14.1,14.1,0,0,0,92,17.23,5.55,5.55,0,0,0,87.34,17.54Z"/><path d="M31.12,48.9c-1.23-.16-2.46-.3-3.69-.49C22.73,47.69,18,47,13.32,46.22,8.26,45.41,5.22,40.61,4.7,37a10.66,10.66,0,0,1,5-11A13,13,0,0,1,20,24.11c3.2.68,6.32.33,9.47.06a31.07,31.07,0,0,0,4.27-.75A21.35,21.35,0,0,0,44,18c1.91-1.85,3.65-3.87,5.61-5.75-.29.15-.6.27-.88.44-2.4,1.44-4.74,3-7.2,4.32A33.3,33.3,0,0,1,26,20.62c-.18,0-.37,0-.66-.06.12-.43.2-.84.34-1.22q.46-1.25,1-2.48A19.62,19.62,0,0,1,41.15,4.67a30.56,30.56,0,0,1,11.7-.22,56.63,56.63,0,0,1,27.37,12A48.86,48.86,0,0,1,85.8,22c3.25,3.65,4.91,8.12,6.21,12.74a66.31,66.31,0,0,1,2.69,16.41,44.48,44.48,0,0,1-.17,5,14.48,14.48,0,0,1-1.74,5.58C87,72.5,78.27,79.84,67.14,84.57a60.71,60.71,0,0,1-20.06,4.79c-3.68.23-7.38.31-11.06.23a31.66,31.66,0,0,1-10.29-1.91,15.24,15.24,0,0,1-5.92-3.63,9.79,9.79,0,0,1-2.76-5.93c6.28-.22,12.48-.36,18.39-2.75-.33,0-.66-.11-1-.13-6.3-.35-12.6-.69-18.89-1.06A11,11,0,0,1,6,68.32,15.5,15.5,0,0,1,4.9,55.45a8.68,8.68,0,0,1,2.67-4A5.88,5.88,0,0,1,12.36,50C18.66,50.89,24.92,50.87,31.12,48.9Zm56.56-4.6a2,2,0,0,0-2.56-2c-1.44.38-2.86.86-4.29,1.28C74.64,45.44,68.31,46.56,62,47.85c-1.64.34-2.43,1.26-2.16,2.52s1.28,1.74,2.88,1.4c5.34-1.12,10.68-2.22,16-3.44,2.49-.57,4.93-1.39,7.38-2.14A1.9,1.9,0,0,0,87.68,44.31ZM70.61,63.24c.19-.06.55-.16.9-.29l4.3-1.68a72.27,72.27,0,0,0,11.43-5.9,2.2,2.2,0,0,0,1.19-1.48,1.9,1.9,0,0,0-.74-2,2,2,0,0,0-2.47,0,74.86,74.86,0,0,1-15,7.23,4.2,4.2,0,0,0-1.11.58A2,2,0,0,0,68.56,62,2.1,2.1,0,0,0,70.61,63.24Zm.47-26.59v.14c3.48-.35,7-.68,10.44-1.05,1.06-.11,2.12-.31,3.17-.53A2,2,0,0,0,86.43,33a2,2,0,0,0-2.31-1.74c-.32,0-.64.11-1,.15-2.83.34-5.65.7-8.48,1-1.76.18-3.54.21-5.31.32-.51,0-1,.07-1.53.15A1.93,1.93,0,0,0,66,35a2,2,0,0,0,2.16,1.9C69.12,36.85,70.1,36.73,71.08,36.66Z" style="fill:#fff"/><path d="M87.34,17.54A5.55,5.55,0,0,1,92,17.23a14.1,14.1,0,0,1,7.34,6.21,35.46,35.46,0,0,1,3.52,8.07,55.14,55.14,0,0,1,2.95,16.9,17.55,17.55,0,0,1-2.31,8.7,11.06,11.06,0,0,1-2,2.52,3.41,3.41,0,0,1-3.64.74c.23-1.36.5-2.72.67-4.09a48,48,0,0,0-.62-13.39,74.27,74.27,0,0,0-3.59-13.94,32.41,32.41,0,0,0-6.18-10.42C87.9,18.24,87.68,17.95,87.34,17.54Z" style="fill:#fff"/><path d="M87.68,44.31a1.9,1.9,0,0,1-1.57,1.89c-2.45.75-4.89,1.57-7.38,2.14-5.31,1.22-10.66,2.32-16,3.44-1.6.34-2.62-.2-2.88-1.4s.51-2.19,2.16-2.52c6.3-1.29,12.64-2.42,18.82-4.22,1.43-.42,2.85-.89,4.29-1.28A2,2,0,0,1,87.68,44.31Z"/><path d="M70.61,63.24A2.1,2.1,0,0,1,68.56,62a2,2,0,0,1,.58-2.28,4.2,4.2,0,0,1,1.11-.58,74.86,74.86,0,0,0,15-7.23,2,2,0,0,1,2.47,0,1.9,1.9,0,0,1,.74,2,2.2,2.2,0,0,1-1.19,1.48,72.27,72.27,0,0,1-11.43,5.9L71.51,63C71.17,63.09,70.81,63.18,70.61,63.24Z"/><path d="M71.08,36.66c-1,.07-2,.19-2.93.2A2,2,0,0,1,66,35a1.93,1.93,0,0,1,1.85-2.05c.51-.08,1-.12,1.53-.15,1.77-.11,3.55-.15,5.31-.32,2.83-.28,5.65-.65,8.48-1,.32,0,.64-.13,1-.15A2,2,0,0,1,86.43,33a2,2,0,0,1-1.72,2.18c-1.05.21-2.11.41-3.17.53-3.48.37-7,.7-10.44,1.05Z"/></g></g></svg>