<svg xmlns="http://www.w3.org/2000/svg" viewBox="0 0 147.18 103.57"><title>scissors</title><g id="Layer_2" data-name="Layer 2"><g id="Layer_1-2" data-name="Layer 1"><path d="M107.21,59.26c.88.52,1.77,1,2.64,1.56,6.34,3.87,12.69,7.71,19,11.64a20.32,20.32,0,0,1,8.74,22.44,15.39,15.39,0,0,1-1.21,3,10.17,10.17,0,0,1-12.19,5.26,23,23,0,0,1-5.12-2.2c-7.71-4.4-15.5-8.63-23.57-12.34-2.5-1.15-5.06-2.17-7.56-3.32a1.94,1.94,0,0,0-2.06.18,53.27,53.27,0,0,1-15.52,6.62,38.45,38.45,0,0,1-23.91-1.7A64.41,64.41,0,0,1,19.5,70.64a50.67,50.67,0,0,1-8.63-16.56l-.46-1.49c-.65,0-1.25-.05-1.85-.13a8.31,8.31,0,0,1-6.72-4.89A20.34,20.34,0,0,1,.17,41.39a22.46,22.46,0,0,1,1-9.68,62,62,0,0,1,10-19.64,21.6,21.6,0,0,1,9.21-7.31A13.64,13.64,0,0,1,26.52,3.7,9.29,9.29,0,0,1,32,5.93c.35.3.69.61,1,.91C35,6,36.79,5.09,38.69,4.33A62.2,62.2,0,0,1,66.17.16a33.76,33.76,0,0,1,13.58,3.6,23.56,23.56,0,0,1,13,18.33c.23,1.57.41,3.15.64,4.92,1.78.28,3.6.64,5.43.85,6.73.79,13.47,1.44,20.18,2.32a105.59,105.59,0,0,1,12.81,2.25,19.86,19.86,0,0,1,14.31,12.67,15.38,15.38,0,0,1,.78,8.54c-1.19,6.1-6.18,9.37-12.14,8.59-2.68-.35-5.33-1-8-1.34-3.84-.51-7.7-.9-11.55-1.3-1.81-.19-3.63-.32-5.45-.46-.82-.06-1.65-.1-2.47-.14Zm-18-33.19c-.14-1.22-.23-2.38-.41-3.52A19.6,19.6,0,0,0,82.33,10.3,24.64,24.64,0,0,0,70.95,4.87,49.2,49.2,0,0,0,56,4.27,56.46,56.46,0,0,0,36.69,9.58c-4.68,2.27-8.95,5.13-12,9.41A64,64,0,0,0,14,42.58a16.19,16.19,0,0,0-.11,7.64,47.47,47.47,0,0,0,8.25,17.34A59.54,59.54,0,0,0,45.67,85.69a36.42,36.42,0,0,0,15,3.53,42.8,42.8,0,0,0,20.8-5.86c.13-.07.2-.25.33-.41L65.73,77.15l0-.32c.77,0,1.54-.08,2.31-.05a60.8,60.8,0,0,1,12.18,1.74A89.23,89.23,0,0,1,96,84.4c8.47,3.83,16.66,8.22,24.72,12.85a21.31,21.31,0,0,0,4.31,2,6.24,6.24,0,0,0,8-3.57,12.26,12.26,0,0,0,1.17-4.14c.53-7-2.11-12.38-8.11-16.06-2.43-1.49-4.85-3-7.3-4.45-6.7-4-13.4-8-20.14-11.9a14.35,14.35,0,0,0-4.14-1.63c-3.42-.73-6.88-1.28-10.34-1.83-2.42-.38-4.86-.63-7.28-.94a.88.88,0,0,1,.58-.41,65.19,65.19,0,0,1,17.45-.57c7,.68,14.05,1.23,21.07,1.92,4.51.45,9,1,13.49,1.6,2.08.27,4.13.8,6.21,1A6.29,6.29,0,0,0,143,52.87a12.6,12.6,0,0,0-2.12-9.47,16.42,16.42,0,0,0-11-7.38c-4.62-.92-9.29-1.6-14-2.21-6.58-.85-13.18-1.5-19.76-2.32a54.51,54.51,0,0,1-13.26-3.36,24.19,24.19,0,0,1-12.22-10c-1-1.63-2-3.24-3.05-4.87-.23-.37-.46-.76-.68-1.14l.2-.2C73,18.87,79.79,24.33,89.19,26.07ZM29.47,9a5.77,5.77,0,0,0-3.65-1.37A9.79,9.79,0,0,0,22,8.41a17.55,17.55,0,0,0-7.68,6.1A58.74,58.74,0,0,0,5.07,32.63a19.56,19.56,0,0,0-1,7.87A15,15,0,0,0,5.54,46a4.06,4.06,0,0,0,4,2.42c0-.37,0-.64,0-.91a55.59,55.59,0,0,1,.65-5.83A69.22,69.22,0,0,1,20.24,18.3a31.35,31.35,0,0,1,8-8.33C28.62,9.69,29,9.41,29.47,9Z"/><path d="M89.19,26.07c-9.4-1.74-16.22-7.2-22.07-14.18l-.2.2c.23.38.45.76.68,1.14,1,1.62,2.05,3.23,3.05,4.87a24.19,24.19,0,0,0,12.22,10A54.51,54.51,0,0,0,96.14,31.5c6.58.82,13.18,1.46,19.76,2.32,4.67.61,9.35,1.29,14,2.21a16.42,16.42,0,0,1,11,7.38A12.6,12.6,0,0,1,143,52.87a6.29,6.29,0,0,1-7.29,5.41c-2.08-.24-4.13-.76-6.21-1-4.49-.58-9-1.15-13.49-1.6-7-.69-14.05-1.24-21.07-1.92a65.19,65.19,0,0,0-17.45.57.88.88,0,0,0-.58.41c2.43.31,4.87.56,7.28.94,3.46.55,6.92,1.1,10.34,1.83a14.35,14.35,0,0,1,4.14,1.63C105.37,63,112.07,67,118.77,71c2.45,1.46,4.87,3,7.3,4.45,6,3.69,8.64,9.11,8.11,16.06A12.26,12.26,0,0,1,133,95.65a6.24,6.24,0,0,1-8,3.57,21.31,21.31,0,0,1-4.31-2c-8.06-4.63-16.24-9-24.72-12.85a89.23,89.23,0,0,0-15.7-5.89,60.8,60.8,0,0,0-12.18-1.74c-.77,0-1.54,0-2.31.05l0,.32L81.81,83c-.12.16-.2.34-.33.41a42.8,42.8,0,0,1-20.8,5.86,36.42,36.42,0,0,1-15-3.53A59.54,59.54,0,0,1,22.18,67.57a47.47,47.47,0,0,1-8.25-17.34A16.19,16.19,0,0,1,14,42.58,64,64,0,0,1,24.67,19c3.07-4.28,7.34-7.14,12-9.41A56.46,56.46,0,0,1,56,4.27a49.2,49.2,0,0,1,14.92.61A24.64,24.64,0,0,1,82.33,10.3a19.6,19.6,0,0,1,6.45,12.26C89,23.69,89,24.85,89.19,26.07Zm-64,7.4a2.06,2.06,0,0,0-2.11,1.23,1.81,1.81,0,0,0,.38,2.07,4,4,0,0,0,.9.66c6.87,4.17,14.22,7.39,21.52,10.72a2.69,2.69,0,0,0,.39.16,2,2,0,0,0,2.46-1.06,1.94,1.94,0,0,0-.83-2.53,6.92,6.92,0,0,0-.87-.44C40,41,32.86,37.88,26.18,33.84A4.88,4.88,0,0,0,25.24,33.47ZM38,55.15a6.85,6.85,0,0,0-.79-1.22,6.74,6.74,0,0,0-1.35-1,70.12,70.12,0,0,1-12-9.78,4.07,4.07,0,0,0-.52-.46,2,2,0,0,0-2.77,2.78,7.66,7.66,0,0,0,.77.81,70,70,0,0,0,11,9.07c.9.59,1.74,1.27,2.66,1.81C36.36,58,38,57,38,55.15Zm6.22-22.81a2.05,2.05,0,0,0,2.08-1.5,1.89,1.89,0,0,0-.88-2.17,5.65,5.65,0,0,0-1.3-.5,119.74,119.74,0,0,1-14.31-4.83,3.28,3.28,0,0,0-.93-.26,1.9,1.9,0,0,0-2.06,1.32,2,2,0,0,0,.84,2.32,5.52,5.52,0,0,0,.76.35A122.42,122.42,0,0,0,43.67,32.2C43.89,32.26,44.12,32.3,44.24,32.33Z" style="fill:#fff"/><path d="M29.47,9c-.49.38-.85.67-1.21.94a31.35,31.35,0,0,0-8,8.33A69.22,69.22,0,0,0,10.17,41.69a55.59,55.59,0,0,0-.65,5.83c0,.27,0,.54,0,.91a4.06,4.06,0,0,1-4-2.42A15,15,0,0,1,4.11,40.5a19.56,19.56,0,0,1,1-7.87,58.74,58.74,0,0,1,9.25-18.11A17.55,17.55,0,0,1,22,8.41a9.79,9.79,0,0,1,3.82-.76A5.77,5.77,0,0,1,29.47,9Z" style="fill:#fff"/><path d="M25.24,33.47a4.88,4.88,0,0,1,.94.37c6.68,4,13.8,7.2,20.89,10.41a6.92,6.92,0,0,1,.87.44,1.94,1.94,0,0,1,.83,2.53,2,2,0,0,1-2.46,1.06,2.69,2.69,0,0,1-.39-.16C38.63,44.8,31.28,41.59,24.4,37.42a4,4,0,0,1-.9-.66,1.81,1.81,0,0,1-.38-2.07A2.06,2.06,0,0,1,25.24,33.47Z"/><path d="M38,55.15c0,1.88-1.65,2.81-3,2-.93-.54-1.76-1.22-2.66-1.81a70,70,0,0,1-11-9.07,7.66,7.66,0,0,1-.77-.81,2,2,0,0,1,2.77-2.78,4.07,4.07,0,0,1,.52.46,70.12,70.12,0,0,0,12,9.78,6.74,6.74,0,0,1,1.35,1A6.85,6.85,0,0,1,38,55.15Z"/><path d="M44.24,32.33c-.12,0-.35-.07-.57-.13a122.42,122.42,0,0,1-15.24-5.13,5.52,5.52,0,0,1-.76-.35,2,2,0,0,1-.84-2.32,1.9,1.9,0,0,1,2.06-1.32,3.28,3.28,0,0,1,.93.26,119.74,119.74,0,0,0,14.31,4.83,5.65,5.65,0,0,1,1.3.5,1.89,1.89,0,0,1,.88,2.17A2.05,2.05,0,0,1,44.24,32.33Z"/></g></g></svg>